<svg xmlns="http://www.w3.org/2000/svg" viewBox="0 0 64 64" width="64" height="64">
    <!-- Gradient Background -->
    <defs>
        <linearGradient id="grad1" x1="0%" y1="0%" x2="100%" y2="100%">
            <stop offset="0%" style="stop-color:#c6a4f7;stop-opacity:1" />
            <stop offset="100%" style="stop-color:#e4d2f7;stop-opacity:1" />
        </linearGradient>
    </defs>
    <rect x="2" y="2" width="60" height="60" fill="url(#grad1)" rx="10"/>

    <!-- Document Shape -->
    <path d="M20 14h24a4 4 0 0 1 4 4v28a4 4 0 0 1-4 4H20a4 4 0 0 1-4-4V18a4 4 0 0 1 4-4z" fill="#fff" rx="4"/>

    <!-- Folded Corner -->
    <path d="M44 14v10h10" fill="#f0e4fc"/>
    <path d="M44 14v10h10" fill="none" stroke="#c6a4f7" stroke-width="1.5"/>

    <!-- Text Lines -->
    <line x1="24" y1="26" x2="40" y2="26" stroke="#c6a4f7" stroke-width="2"/>
    <line x1="24" y1="32" x2="40" y2="32" stroke="#c6a4f7" stroke-width="2"/>
    <line x1="24" y1="38" x2="38" y2="38" stroke="#c6a4f7" stroke-width="2"/>
    <line x1="24" y1="44" x2="34" y2="44" stroke="#c6a4f7" stroke-width="2"/>

    <!-- Decorative Icon -->
    <circle cx="32" cy="20" r="3" fill="#c6a4f7"/>
</svg>
