<svg xmlns="http://www.w3.org/2000/svg" width="24" height="24" fill="none" stroke="currentColor" stroke-width="2" stroke-linecap="round" stroke-linejoin="round" class="feather feather-phone">
    <path d="M22 16.92v3a2 2 0 0 1-2.18 2 19.86 19.86 0 0 1-8.63-3.17 19.86 19.86 0 0 1-6.29-6.29A19.86 19.86 0 0 1 2 4.18 2 2 0 0 1 4 2h3a2 2 0 0 1 2 1.72c.2 1.5.63 2.94 1.28 4.31a2 2 0 0 1-.45 2.11L8.12 11a16 16 0 0 0 6.29 6.29l1.83-1.83a2 2 0 0 1 2.11-.45c1.37.65 2.81 1.08 4.31 1.28A2 2 0 0 1 22 16.92z"></path>
</svg>
